<svg xmlns="http://www.w3.org/2000/svg" width="1600" height="900" viewBox="0 0 1600 900" role="img" aria-labelledby="title desc">
  <title id="title">BD-AUTO Smart Repair Utility</title>
  <desc id="desc">Slate-toned futuristic BD-AUTO repair dashboard with metallic crest branding.</desc>
  <defs>
    <linearGradient id="bg" x1="0" y1="0" x2="1" y2="1">
      <stop offset="0%" stop-color="#06080d"/>
      <stop offset="35%" stop-color="#0d121c"/>
      <stop offset="70%" stop-color="#12111a"/>
      <stop offset="100%" stop-color="#08090e"/>
    </linearGradient>
    <radialGradient id="coreGlow" cx="50%" cy="42%" r="52%">
      <stop offset="0%" stop-color="#31435e" stop-opacity="0.8"/>
      <stop offset="55%" stop-color="#1a2030" stop-opacity="0.36"/>
      <stop offset="100%" stop-color="#0a0c12" stop-opacity="0"/>
    </radialGradient>
    <linearGradient id="metal" x1="0" y1="0" x2="1" y2="1">
      <stop offset="0%" stop-color="#f6f8ff"/>
      <stop offset="35%" stop-color="#a8b3cc"/>
      <stop offset="65%" stop-color="#68748f"/>
      <stop offset="100%" stop-color="#d7dff4"/>
    </linearGradient>
    <linearGradient id="accent" x1="0" y1="0" x2="1" y2="1">
      <stop offset="0%" stop-color="#6ec2ff"/>
      <stop offset="55%" stop-color="#5282ff"/>
      <stop offset="100%" stop-color="#7e5bff"/>
    </linearGradient>
    <linearGradient id="panelStroke" x1="0" y1="0" x2="1" y2="0">
      <stop offset="0%" stop-color="#263244"/>
      <stop offset="50%" stop-color="#42526d"/>
      <stop offset="100%" stop-color="#202b3d"/>
    </linearGradient>
    <filter id="blueGlow" x="-35%" y="-35%" width="170%" height="170%">
      <feGaussianBlur stdDeviation="9" result="blur"/>
      <feMerge>
        <feMergeNode in="blur"/>
        <feMergeNode in="SourceGraphic"/>
      </feMerge>
    </filter>
  </defs>

  <rect width="1600" height="900" fill="url(#bg)"/>
  <rect width="1600" height="900" fill="url(#coreGlow)"/>

  <g opacity="0.18" stroke="#283447" stroke-width="1" fill="none">
    <path d="M0 756H1600"/>
    <path d="M0 786H1600"/>
    <path d="M0 816H1600"/>
    <path d="M0 846H1600"/>
    <path d="M130 0V900"/>
    <path d="M1470 0V900"/>
  </g>

  <g opacity="0.16" fill="#7ea6ff">
    <rect x="68" y="68" width="6" height="6" rx="3"/>
    <rect x="94" y="68" width="6" height="6" rx="3"/>
    <rect x="120" y="68" width="6" height="6" rx="3"/>
    <rect x="146" y="68" width="6" height="6" rx="3"/>
    <rect x="172" y="68" width="6" height="6" rx="3"/>
    <rect x="198" y="68" width="6" height="6" rx="3"/>
    <rect x="224" y="68" width="6" height="6" rx="3"/>
    <rect x="250" y="68" width="6" height="6" rx="3"/>
    <rect x="276" y="68" width="6" height="6" rx="3"/>
  </g>

  <g opacity="0.12" stroke="#4d6391" stroke-width="2" fill="none">
    <circle cx="800" cy="306" r="198"/>
    <circle cx="800" cy="306" r="254" stroke-dasharray="6 12"/>
    <circle cx="800" cy="306" r="308" stroke-dasharray="2 18"/>
  </g>

  <g transform="translate(124 140)">
    <path d="M0 26 24 0h254l24 26v496l-24 26H24L0 522Z" fill="#0d1118" stroke="url(#panelStroke)" stroke-width="2"/>
    <text x="28" y="58" fill="#7fb3ff" font-family="Segoe UI, Arial, sans-serif" font-size="28" letter-spacing="1">SYSTEM OVERVIEW</text>
    <line x1="28" y1="84" x2="274" y2="84" stroke="#2f3c53"/>
    <g font-family="Segoe UI, Arial, sans-serif">
      <g transform="translate(28 126)">
        <circle cx="14" cy="18" r="14" fill="none" stroke="#9ab6ff" stroke-width="4"/>
        <path d="M9 18h10M14 13v10" stroke="#9ab6ff" stroke-width="4" stroke-linecap="round"/>
        <text x="42" y="14" fill="#e4ebff" font-size="17">BD PATCH STATUS</text>
        <text x="42" y="38" fill="#96a6c4" font-size="14">bdcli-first repair path verified</text>
      </g>
      <g transform="translate(28 214)">
        <path d="M0 18a16 16 0 1 1 8 14" fill="none" stroke="#7b8fff" stroke-width="4" stroke-linecap="round"/>
        <path d="M28 18a16 16 0 1 1-8-14" fill="none" stroke="#7b8fff" stroke-width="4" stroke-linecap="round"/>
        <text x="42" y="14" fill="#e4ebff" font-size="17">ADDON SYNC</text>
        <text x="42" y="38" fill="#96a6c4" font-size="14">source-aware restore policy active</text>
      </g>
      <g transform="translate(28 302)">
        <path d="M0 10h18v18H0z" fill="none" stroke="#9d8aff" stroke-width="4"/>
        <path d="M9 0v38M0 19h18" stroke="#9d8aff" stroke-width="4" stroke-linecap="round"/>
        <text x="42" y="14" fill="#e4ebff" font-size="17">PLUGIN / THEME AUDIT</text>
        <text x="42" y="38" fill="#96a6c4" font-size="14">health and version checks complete</text>
      </g>
      <g transform="translate(28 390)">
        <path d="M14 0 30 8v20c0 11-8 20-16 26C6 48-2 39-2 28V8Z" fill="none" stroke="#84a8ff" stroke-width="4"/>
        <path d="M8 24 13 29 21 18" fill="none" stroke="#84a8ff" stroke-width="4" stroke-linecap="round" stroke-linejoin="round"/>
        <text x="42" y="14" fill="#e4ebff" font-size="17">WATCHDOG TASK</text>
        <text x="42" y="38" fill="#96a6c4" font-size="14">logon and resume repair ready</text>
      </g>
      <g transform="translate(28 478)">
        <path d="M0 22a18 18 0 1 1 7 14" fill="none" stroke="#9fb4d6" stroke-width="4" stroke-linecap="round"/>
        <path d="M31 22a18 18 0 1 1-7-14" fill="none" stroke="#9fb4d6" stroke-width="4" stroke-linecap="round"/>
        <text x="42" y="14" fill="#e4ebff" font-size="17">DISCORD RELAUNCH</text>
        <text x="42" y="38" fill="#96a6c4" font-size="14">close / repair / relaunch managed</text>
      </g>
    </g>
  </g>

  <g transform="translate(1174 140)">
    <path d="M0 26 24 0h302l24 26v496l-24 26H24L0 522Z" fill="#0d1118" stroke="url(#panelStroke)" stroke-width="2"/>
    <text x="28" y="58" fill="#7fb3ff" font-family="Segoe UI, Arial, sans-serif" font-size="28" letter-spacing="1">REPAIR WORKFLOW</text>
    <line x1="28" y1="84" x2="324" y2="84" stroke="#2f3c53"/>
    <g font-family="Segoe UI, Arial, sans-serif" fill="#dce5fb" font-size="17">
      <text x="30" y="148">&gt; Scanning Discord installation</text>
      <text x="30" y="196">&gt; Checking BetterDiscord state</text>
      <text x="30" y="244">&gt; Verifying patch method</text>
      <text x="30" y="292">&gt; Syncing addons safely</text>
      <text x="30" y="340">&gt; Repairing installation</text>
      <text x="30" y="388">&gt; Auditing plugins and themes</text>
      <text x="30" y="436">&gt; Registering watchdog automation</text>
    </g>
    <line x1="28" y1="498" x2="324" y2="498" stroke="#2f3c53"/>
    <circle cx="46" cy="540" r="12" fill="none" stroke="#8aa8ff" stroke-width="4"/>
    <path d="M39 540 45 546 54 534" fill="none" stroke="#8aa8ff" stroke-width="4" stroke-linecap="round" stroke-linejoin="round"/>
    <text x="74" y="548" fill="#9ab6ff" font-family="Segoe UI, Arial, sans-serif" font-size="22">BD-AUTO repair ready.</text>
    <rect x="28" y="590" width="296" height="12" rx="6" fill="#131823" stroke="#313f56"/>
    <path d="M38 596h182" stroke="url(#accent)" stroke-width="10" stroke-linecap="round" stroke-dasharray="18 12"/>
  </g>

  <g transform="translate(800 286)" filter="url(#blueGlow)">
    <path d="M0-150 108-86 108 38 0 102-108 38-108-86Z" fill="none" stroke="url(#metal)" stroke-width="34" stroke-linejoin="round"/>
    <path d="M0-92 66-54 66 18 0 56-66 18-66-54Z" fill="none" stroke="url(#accent)" stroke-width="16" stroke-linejoin="round"/>
    <path d="M0-182v-44M0 124v94M-152 -20h-92M-152 18h-92M152 -20h92M152 18h92" stroke="url(#accent)" stroke-width="6" stroke-linecap="round"/>
    <circle cx="0" cy="-226" r="10" fill="none" stroke="#7cc7ff" stroke-width="6"/>
    <circle cx="-262" cy="-20" r="10" fill="none" stroke="#7aaeff" stroke-width="6"/>
    <circle cx="-262" cy="18" r="10" fill="none" stroke="#7aaeff" stroke-width="6"/>
    <circle cx="262" cy="-20" r="10" fill="none" stroke="#9b8fff" stroke-width="6"/>
    <circle cx="262" cy="18" r="10" fill="none" stroke="#9b8fff" stroke-width="6"/>
    <path d="M0-18 20-7 20 7 0 18-20 7-20-7Z" fill="#5172ff" stroke="#c4d5ff" stroke-width="4"/>
  </g>

  <g transform="translate(800 658)">
    <text text-anchor="middle" fill="url(#metal)" font-family="Segoe UI, Arial, sans-serif" font-size="136" font-weight="700" letter-spacing="4">BD-AUTO</text>
    <text y="52" text-anchor="middle" fill="#9ca9c0" font-family="Segoe UI, Arial, sans-serif" font-size="34" letter-spacing="10">SMART REPAIR UTILITY</text>
  </g>

  <g transform="translate(78 772)">
    <path d="M0 26 20 0h1404l20 26v104l-20 26H20L0 130Z" fill="#0d1118" stroke="url(#panelStroke)" stroke-width="2"/>
    <g font-family="Segoe UI, Arial, sans-serif">
      <g transform="translate(50 56)">
        <path d="M0 -18 20 -28 40 -18 36 18H4Z" fill="none" stroke="#8db0ff" stroke-width="5"/>
        <path d="M14 -4h12" stroke="#8db0ff" stroke-width="5" stroke-linecap="round"/>
        <text x="70" y="-6" fill="#e6ecff" font-size="18">BDCLI-FIRST REPAIR</text>
        <text x="70" y="22" fill="#99a9c4" font-size="15">Uses the official CLI repair path when available.</text>
      </g>
      <g transform="translate(430 56)">
        <path d="M0 -6a25 25 0 1 1 8 48" fill="none" stroke="#7fa1ff" stroke-width="6" stroke-linecap="round"/>
        <path d="M0 42a25 25 0 1 1-8-48" fill="none" stroke="#7fa1ff" stroke-width="6" stroke-linecap="round"/>
        <text x="66" y="-6" fill="#e6ecff" font-size="18">SOURCE-AWARE ADDONS</text>
        <text x="66" y="22" fill="#99a9c4" font-size="15">Preserves newer installed addons and restores safely.</text>
      </g>
      <g transform="translate(834 56)">
        <path d="M24 -20 48 -8V18C48 30 38 40 24 48 10 40 0 30 0 18V-8Z" fill="none" stroke="#8da5ff" stroke-width="5"/>
        <path d="M14 10 22 18 34 4" fill="none" stroke="#8da5ff" stroke-width="5" stroke-linecap="round" stroke-linejoin="round"/>
        <text x="74" y="-6" fill="#e6ecff" font-size="18">WATCHDOG AUTOMATION</text>
        <text x="74" y="22" fill="#99a9c4" font-size="15">Optional background repair task for future patch checks.</text>
      </g>
      <g transform="translate(1208 56)">
        <path d="M0 0h28v28H0z" fill="none" stroke="#9b89ff" stroke-width="5"/>
        <path d="M14 -10v48M-10 14h48" stroke="#9b89ff" stroke-width="5" stroke-linecap="round"/>
        <text x="58" y="-6" fill="#e6ecff" font-size="18">PLUGIN / THEME AUDIT</text>
        <text x="58" y="22" fill="#99a9c4" font-size="15">Checks addon health, versions, and repair status.</text>
      </g>
    </g>
  </g>

  <text x="800" y="882" text-anchor="middle" fill="#7fa1ff" font-family="Segoe UI, Arial, sans-serif" font-size="24" letter-spacing="14">REPAIR. VERIFY. RELAUNCH.</text>
</svg>
